PathFileType	4	(X/Y/Z)	C:/Users/opensim2020/Desktop/walking_exp_matlab/subject02_walking12_straight_02.trc	
DataRate	CameraRate	NumFrames	NumMarkers	Units	OrigDataRate	OrigDataStartFrame	OrigNumFrames	
100.00	100.00	6	42	mm	100.00	1146	149	
Frame#	Time	LFHD			RFHD			LBHD			RBHD			C7			T10			CLAV			STRN			RBAK			LSHO			LUPA			LELB			LFRM			LWRA			LWRB			LFIN			RSHO			RUPA			RELB			RFRM			RWRA			RWRB			RFIN			LASI			RASI			LPSI			RPSI			LTHI			LKNE			LTIB			LANK			LHEE			LTOE			RTHI			RKNE			RTIB			RANK			RHEE			RTOE			*39			*40			*41			
		X1	Y1	Z1	X2	Y2	Z2	X3	Y3	Z3	X4	Y4	Z4	X5	Y5	Z5	X6	Y6	Z6	X7	Y7	Z7	X8	Y8	Z8	X9	Y9	Z9	X10	Y10	Z10	X11	Y11	Z11	X12	Y12	Z12	X13	Y13	Z13	X14	Y14	Z14	X15	Y15	Z15	X16	Y16	Z16	X17	Y17	Z17	X18	Y18	Z18	X19	Y19	Z19	X20	Y20	Z20	X21	Y21	Z21	X22	Y22	Z22	X23	Y23	Z23	X24	Y24	Z24	X25	Y25	Z25	X26	Y26	Z26	X27	Y27	Z27	X28	Y28	Z28	X29	Y29	Z29	X30	Y30	Z30	X31	Y31	Z31	X32	Y32	Z32	X33	Y33	Z33	X34	Y34	Z34	X35	Y35	Z35	X36	Y36	Z36	X37	Y37	Z37	X38	Y38	Z38	X39	Y39	Z39	X40	Y40	Z40	X41	Y41	Z41	X42	Y42	Z42	

131	1.300	1483.56970	-749.51190	1691.16113	1349.87427	-702.77094	1662.38416	1538.74707	-618.72955	1640.18335	1408.61646	-561.92902	1612.38757	1486.21887	-529.40100	1490.68726	1487.79541	-485.57883	1207.75562	1479.44934	-670.32190	1422.64185	1476.01160	-727.75732	1254.10645	1438.43689	-468.07712	1305.56653	1649.48914	-622.74713	1479.70374	1767.66870	-689.20605	1321.56177	1817.94653	-768.12561	1212.81714	1839.07214	-878.30145	1137.65198	1810.86963	-1007.89288	1103.73584	1845.87280	-979.79608	1070.08618	1858.87585	-1042.01172	1056.61353	1293.08142	-577.87061	1442.73645	1228.49170	-515.90771	1255.54736	1219.19885	-508.63748	1108.34741	1202.99487	-514.42590	987.89697	1222.62158	-543.75378	854.84418	1196.53503	-493.87192	859.27197	1194.91602	-517.48645	789.72400	1627.90723	-720.30463	956.40814	1369.73120	-737.16479	946.01056	1531.74487	-514.64789	994.10480	1418.58667	-513.61926	989.25604	1684.85681	-585.63977	658.71765	1662.31384	-504.96024	471.64944	1666.46582	-374.07263	326.29663	1643.05554	-283.08569	117.30180	1593.23181	-241.43617	104.59543	1652.64697	-417.51105	30.05152	1293.79126	-747.58411	650.63745	1338.42859	-807.62866	452.79382	1344.31897	-818.58069	263.57813	1382.26013	-868.38770	78.17410	1446.42358	-864.91644	27.43458	1338.10730	-1023.11975	54.16104	1419.90613	-634.89313	1766.38635	-3357.35327	2845.94043	1034.38782			 
132	1.310	1479.33276	-760.93842	1689.87585	1345.86096	-713.47937	1661.15625	1535.30383	-630.51947	1638.59998	1405.55054	-573.01868	1610.69714	1482.88562	-540.22278	1488.66138	1483.83936	-498.42197	1205.66821	1475.89014	-682.10931	1421.30664	1472.60303	-740.51941	1253.47314	1435.35205	-480.89322	1303.11584	1645.88745	-634.09460	1478.33948	1764.13171	-699.94006	1320.01135	1814.47058	-778.19080	1210.99341	1835.11328	-889.06586	1136.50732	1806.43140	-1019.21051	1104.09729	1841.25500	-991.25696	1069.84961	1853.95203	-1053.71643	1056.84436	1289.57678	-589.11041	1440.93347	1225.60486	-526.69543	1253.62207	1216.66931	-519.12000	1106.62878	1200.34216	-524.16260	986.14960	1219.66553	-553.12994	853.12231	1194.23718	-502.79788	857.64502	1192.37122	-525.65778	787.80304	1625.31628	-734.95203	955.11261	1366.89490	-751.91064	945.65765	1528.43237	-528.89551	992.06818	1415.58716	-528.31281	986.91077	1683.47229	-599.76367	657.76965	1662.33423	-518.82874	471.68274	1665.72925	-383.87329	329.97369	1643.66162	-287.00568	123.48859	1593.09998	-246.47874	112.04869	1653.07080	-417.78415	30.01853	1290.14551	-762.59454	650.65460	1335.80835	-819.78076	450.62372	1345.87915	-830.03119	261.97458	1379.06177	-878.43475	79.15457	1442.93274	-869.44226	30.49949	1337.26697	-1033.75293	44.86937	1416.34351	-645.70142	1764.90540	-3357.38599	2845.89673	1034.31348			 
133	1.320	1474.79407	-772.48706	1689.41821	1341.71533	-724.03595	1660.53381	1531.82458	-642.55121	1638.00891	1402.44507	-584.07880	1609.95605	1479.43994	-550.65936	1487.03418	1480.05237	-511.48230	1204.44531	1472.35559	-693.63867	1420.65002	1469.33203	-752.96216	1253.60608	1433.15417	-492.51181	1301.56360	1642.56396	-645.34320	1477.44946	1760.53064	-710.42841	1318.35840	1810.92725	-787.94177	1208.83875	1830.98169	-899.37347	1134.85388	1801.84131	-1029.86279	1103.99158	1836.43225	-1002.11902	1068.91321	1848.71802	-1064.71997	1056.27625	1285.98010	-600.35504	1439.36499	1222.57861	-537.55194	1251.93640	1214.10620	-529.44055	1104.89832	1197.97168	-534.24329	984.58588	1216.68005	-562.78625	851.37341	1191.71802	-512.04309	856.16754	1189.70093	-534.29773	785.96210	1622.26135	-749.66107	953.79865	1364.00378	-766.07788	945.39435	1525.21716	-542.64679	990.50494	1412.35083	-543.17023	985.38324	1682.00354	-614.36597	657.02289	1662.32104	-533.98364	471.86050	1664.90869	-394.66864	334.24075	1644.23352	-292.18945	130.46349	1593.03149	-252.89365	120.86627	1653.49780	-417.99963	30.09267	1285.80212	-773.24609	650.35388	1333.00537	-833.04523	450.87234	1340.38464	-843.70880	263.47998	1375.26636	-887.90167	79.37787	1441.07141	-872.00372	32.05235	1337.61230	-1039.27063	40.33325	1412.60376	-656.65057	1764.24731	-3357.28345	2845.82886	1034.32690			 
134	1.330	1470.08679	-784.00391	1689.55151	1337.42932	-734.51611	1660.37695	1528.18628	-654.46808	1638.25269	1399.42224	-594.99860	1610.00940	1476.02454	-561.56915	1486.50549	1477.17004	-524.34491	1203.53589	1468.75964	-704.82660	1420.88684	1466.06213	-765.26208	1254.32092	1429.92920	-504.79413	1300.57568	1639.51782	-656.27710	1477.02881	1756.93335	-720.59277	1316.63513	1807.24182	-797.30603	1206.41370	1826.59998	-909.10907	1132.80884	1796.88257	-1039.27222	1102.65283	1831.30151	-1012.28796	1067.45435	1843.18152	-1075.07617	1055.02209	1282.49683	-610.89368	1438.03662	1219.63696	-548.19885	1250.24390	1211.42017	-540.06537	1103.37036	1194.99475	-544.38275	983.11157	1213.67004	-572.69147	849.80713	1189.38342	-521.67596	854.74646	1186.84143	-544.15381	784.91364	1618.64282	-764.21594	952.65259	1361.00061	-779.76471	945.51880	1521.92944	-557.23273	989.20300	1408.79895	-557.52527	985.57990	1680.17847	-629.48688	656.59991	1662.61926	-550.56995	472.22702	1663.84753	-406.93127	339.36154	1644.51904	-298.75839	138.45441	1592.11462	-261.07428	130.85641	1653.84387	-417.97919	30.13181	1281.37854	-782.36694	650.00903	1330.65784	-850.25604	455.52057	1333.13074	-860.14215	267.24380	1375.60693	-890.21936	78.99262	1440.98352	-872.07526	32.32386	1339.05029	-1039.59875	36.99254	1408.55823	-667.68280	1764.08252	-3357.25171	2845.86865	1034.28467			 
135	1.340	1465.28088	-795.39124	1689.77917	1333.11670	-744.76422	1660.44824	1524.58484	-666.36047	1638.80322	1396.28967	-605.71997	1610.37659	1472.75830	-573.10773	1486.95691	1474.93335	-537.07135	1203.04626	1465.15833	-715.78754	1421.62561	1462.66809	-777.57178	1255.37476	1426.66418	-516.95972	1300.17908	1636.89099	-667.06158	1477.23816	1753.38721	-730.25757	1314.88635	1803.35547	-806.18427	1203.80676	1822.01086	-918.24524	1130.34143	1791.74329	-1048.51050	1100.96045	1825.95142	-1021.64301	1065.35559	1837.42163	-1084.55420	1053.00464	1278.59314	-622.06250	1437.15698	1216.35840	-559.69409	1249.14063	1208.69873	-550.51147	1102.28577	1192.07605	-554.94525	981.91089	1210.59692	-582.93835	848.78357	1186.82800	-531.77814	853.90344	1184.01746	-553.70825	783.92743	1614.45667	-778.37622	951.73376	1357.66846	-793.18347	946.15320	1519.20801	-571.43250	988.95923	1405.05603	-571.69855	987.23047	1678.38696	-645.11646	656.48907	1663.37244	-568.62683	472.62421	1662.52478	-421.05136	344.87912	1644.17700	-307.61160	146.73976	1591.02124	-271.41745	141.28958	1654.12476	-417.99734	30.32027	1279.86841	-791.68286	649.59180	1329.33264	-868.11407	458.97287	1330.48267	-874.03448	270.26993	1376.53198	-891.61285	81.50800	1440.73071	-872.72723	33.08824	1341.47119	-1042.20898	35.92062	1404.53125	-678.89081	1764.45361	-3360.36328	2845.14844	1034.27332			 
136	1.350	1460.51953	-806.77484	1690.04370	1328.81799	-754.97040	1660.59009	1520.98877	-678.13593	1639.45483	1393.24597	-616.34198	1610.93970	1469.56982	-584.38293	1487.68445	1472.87561	-549.47931	1202.90601	1461.70947	-726.76172	1422.69409	1459.28784	-789.84546	1256.72363	1423.85901	-528.22095	1300.21716	1634.38806	-677.97400	1477.79651	1749.77454	-739.60266	1313.22961	1799.24927	-814.56616	1201.21936	1817.15015	-926.73865	1127.28894	1786.43933	-1056.91650	1098.72131	1820.43994	-1030.16589	1062.76025	1831.46936	-1093.16064	1050.36243	1275.29199	-632.71283	1436.92896	1213.27637	-570.97101	1248.70325	1205.71790	-562.35712	1101.72571	1189.21167	-566.04175	981.61041	1207.33533	-594.05615	848.39844	1184.29712	-542.53455	853.40442	1181.08276	-564.40112	784.05829	1609.86157	-792.33258	951.28992	1354.10730	-806.46588	947.28992	1516.73352	-585.62708	989.34308	1401.35840	-585.21228	989.82910	1676.58508	-661.17426	656.15173	1664.16772	-588.15417	472.71722	1661.52722	-437.66071	349.97577	1644.15576	-318.15695	155.62750	1589.56775	-284.01895	151.93147	1654.16479	-418.49026	30.74611	1279.06262	-802.51324	650.29535	1328.33191	-883.52863	460.73447	1328.91406	-885.45172	272.27927	1375.58386	-895.70795	83.67519	1439.72546	-873.72913	33.21843	1342.04285	-1044.85376	34.80286	1400.61072	-689.85187	1764.96594	-3357.47534	2845.87036	1034.44788			 
